<svg version="1.2" baseProfile="tiny-ps" xmlns="http://www.w3.org/2000/svg" viewBox="0 0 1534 1268" width="200" height="200">
	<title>logo-svg copy-svg</title>
	<style>
		tspan { white-space:pre }
		.shp0 { fill: #ff6301 } 
	</style>
	<path id="Layer" fill-rule="evenodd" class="shp0" d="M791.05 433.78C757.2 560.11 894.55 701.33 1051.91 458.27L1012.45 429.6C1020.79 415.99 1031.07 403.67 1043 393.07C1054.89 382.45 1068.3 373.62 1082.74 366.89C1097.21 360.16 1112.6 355.58 1128.39 353.29C1144.18 351.02 1160.2 351.08 1175.99 353.46C1162.92 363.14 1150.46 373.62 1138.71 384.88C1126.96 396.14 1115.93 408.11 1105.7 420.75C1095.44 433.38 1085.98 446.64 1077.41 460.48C1068.82 474.29 1061.11 488.64 1054.34 503.42L1054.63 503.42C965.25 674.12 1152.78 803.11 1275.57 613.42L1208.57 563.46C1274.08 457.93 1376.88 402.01 1533.74 412.18C1317.99 570.91 1188 840.58 1179.17 1267.08C1111.94 1249.78 1043.68 1236.72 974.79 1228.01C905.93 1219.27 836.58 1214.89 767.15 1214.89C697.71 1214.89 628.36 1219.27 559.5 1228.01C490.61 1236.72 422.35 1249.78 355.12 1267.08C346.29 840.58 216.31 570.94 0.61 412.18C157.42 402.01 260.21 457.93 325.72 563.46L258.8 613.59C381.48 803.31 569.19 674.32 479.75 503.59L481.07 502.96C474.27 488.24 466.57 473.94 458 460.16C449.43 446.38 440 433.18 429.77 420.6C419.54 408 408.54 396.08 396.82 384.85C385.09 373.65 372.69 363.2 359.65 353.54C375.44 351.17 391.49 351.11 407.28 353.4C423.07 355.66 438.43 360.25 452.9 366.98C467.37 373.71 480.75 382.53 492.67 393.16C504.56 403.76 514.85 416.08 523.19 429.68L483.73 458.36C640.25 700.47 776.75 560.97 743.59 434.84C731.67 433.64 720.09 430.14 709.52 424.56C698.91 418.97 689.52 411.38 681.78 402.21C674.07 393.05 668.19 382.48 664.47 371.1C660.77 359.7 659.28 347.73 660.11 335.76L715.91 0.09L715.91 306.45C715.91 319.4 721.07 331.83 730.24 341C739.41 350.16 751.81 355.32 764.77 355.32C777.75 355.32 790.16 350.16 799.33 341C808.5 331.83 813.63 319.4 813.63 306.45L813.63 0L869.48 335.7C870.31 347.21 868.99 358.79 865.58 369.84C862.14 380.87 856.67 391.18 849.45 400.21C842.2 409.2 833.34 416.79 823.31 422.55C813.28 428.28 802.28 432.12 790.85 433.78L791.05 433.78ZM431.09 895.92L431.15 896.03L431.15 896.01L431.09 895.92ZM422.29 923.36L393.49 923.36L416.85 940.29L407.88 967.68L431.09 950.75L454.36 967.68L445.45 940.21L468.74 923.28L439.97 923.28L431.15 896.03L422.29 923.36ZM1109.54 896.01L1100.68 923.36L1071.94 923.36L1095.21 940.29L1086.27 967.68L1109.54 950.75L1132.75 967.68L1123.95 940.21L1147.31 923.28L1118.51 923.28L1109.65 895.92L1109.54 896.01ZM766.89 1067.97L757.35 1093.35C788.98 1093.12 820.68 1093.95 852.46 1095.81L841.48 1069.63L841.48 875.61C856.84 913.36 872.23 951.35 887.68 989.5C903.07 1027.78 918.54 1066.45 934.19 1105.12C961.15 1109.76 988.15 1115.32 1015.17 1121.73C1012.82 1113.05 1010.59 1104.43 1008.35 1095.81L1008.35 797.35L1018.01 775.26C986.23 765.93 954.5 758.05 922.81 751.66L933.79 779.02L933.79 977.02C918.28 937.34 902.81 897.64 887.25 858.57C871.69 819.46 856.41 780.39 841.05 741.66C814.03 740.17 787.03 739.51 760.07 739.66C762.33 747.85 764.57 755.99 766.89 764.18L766.89 1067.97ZM517.92 776.75L523.16 799.38L523.16 1098.93C521.39 1107.38 519.72 1115.86 518.03 1124.31L529.3 1122.02C552.34 1117.32 575.38 1113.08 598.44 1109.33C628.48 1104.98 658.54 1101.37 688.6 1098.5C705.51 1081.86 722.1 1065.22 738.83 1048.89L738.83 937.2C729 929.35 719.15 921.41 709.23 913.74C719.09 904.46 728.95 895.38 738.83 886.18L738.83 789.3C721.93 774.38 705.33 759.71 688.6 745.19C658.51 748.71 628.45 753.09 598.44 758.33C591.71 759.68 584.98 761.06 578.24 762.49C571.54 763.92 564.83 765.38 558.12 766.9C551.42 768.42 544.71 769.97 538.04 771.57C531.36 773.2 524.68 774.83 518.03 776.52L517.92 776.75ZM598.36 825.74C615.29 822.7 632.2 820.04 649.14 817.57L666.05 832.64L666.05 870.71C643.49 887.07 620.91 903.88 598.36 921.13L598.36 994.49C616.1 980.77 633.81 967.42 651.57 954.16L665.96 970.71L665.96 1018.12C660.29 1024.42 654.67 1030.7 649.05 1037.14C632.12 1039.23 615.21 1041.58 598.27 1044.28L598.27 826L598.36 825.74Z" />
</svg>